<svg width="256" height="256" viewBox="0 0 256 256" fill="none" xmlns="http://www.w3.org/2000/svg">
<path d="M70.873 198.386C50.5301 198.386 38.4453 187.912 32 175.223L49.3217 164.548C54.1556 173.209 59.7952 179.252 69.8659 179.252C81.3466 179.252 88.7989 173.813 88.7989 157.902V59.6113H110.149V158.304C110.149 185.495 93.8343 198.386 70.873 198.386Z" fill="#FFDF00"/>
<path d="M179.487 198.386C153.505 198.386 137.795 185.495 130.141 169.986L147.664 160.319C154.109 170.994 162.367 179.453 179.085 179.453C192.982 179.453 202.851 172.001 202.851 160.721C202.851 148.838 194.795 143.601 179.89 136.955L170.827 132.926C150.887 124.064 138.802 113.993 138.802 92.8447C138.802 72.5018 154.512 58 177.272 58C195.399 58 207.685 64.8481 215.943 79.5514L199.226 89.8235C193.989 80.7598 187.947 76.5301 177.272 76.5301C166.395 76.5301 159.547 83.1768 159.547 92.4419C159.547 102.714 165.388 107.347 179.286 113.389L188.148 117.417C211.512 127.689 224 138.566 224 160.52C224 184.488 205.268 198.386 179.487 198.386Z" fill="#FFDF00"/>
</svg>
