<svg width="256" height="256" viewBox="0 0 256 256" fill="none" xmlns="http://www.w3.org/2000/svg">
<path d="M36.7273 196.636H19L70.2727 57H87.7273L139 196.636H121.273L79.5455 79.0909H78.4545L36.7273 196.636ZM43.2727 142.091H114.727V157.091H43.2727V142.091Z" fill="white"/>
<path d="M189.386 199.091C182.75 199.091 176.727 197.841 171.318 195.341C165.909 192.795 161.614 189.136 158.432 184.364C155.25 179.545 153.659 173.727 153.659 166.909C153.659 160.909 154.841 156.045 157.205 152.318C159.568 148.545 162.727 145.591 166.682 143.455C170.636 141.318 175 139.727 179.773 138.682C184.591 137.591 189.432 136.727 194.295 136.091C200.659 135.273 205.818 134.659 209.773 134.25C213.773 133.795 216.682 133.045 218.5 132C220.364 130.955 221.295 129.136 221.295 126.545V126C221.295 119.273 219.455 114.045 215.773 110.318C212.136 106.591 206.614 104.727 199.205 104.727C191.523 104.727 185.5 106.409 181.136 109.773C176.773 113.136 173.705 116.727 171.932 120.545L156.659 115.091C159.386 108.727 163.023 103.773 167.568 100.227C172.159 96.6364 177.159 94.1364 182.568 92.7273C188.023 91.2727 193.386 90.5455 198.659 90.5455C202.023 90.5455 205.886 90.9545 210.25 91.7727C214.659 92.5455 218.909 94.1591 223 96.6136C227.136 99.0682 230.568 102.773 233.295 107.727C236.023 112.682 237.386 119.318 237.386 127.636V196.636H221.295V182.455H220.477C219.386 184.727 217.568 187.159 215.023 189.75C212.477 192.341 209.091 194.545 204.864 196.364C200.636 198.182 195.477 199.091 189.386 199.091ZM191.841 184.636C198.205 184.636 203.568 183.386 207.932 180.886C212.341 178.386 215.659 175.159 217.886 171.205C220.159 167.25 221.295 163.091 221.295 158.727V144C220.614 144.818 219.114 145.568 216.795 146.25C214.523 146.886 211.886 147.455 208.886 147.955C205.932 148.409 203.045 148.818 200.227 149.182C197.455 149.5 195.205 149.773 193.477 150C189.295 150.545 185.386 151.432 181.75 152.659C178.159 153.841 175.25 155.636 173.023 158.045C170.841 160.409 169.75 163.636 169.75 167.727C169.75 173.318 171.818 177.545 175.955 180.409C180.136 183.227 185.432 184.636 191.841 184.636Z" fill="white"/>
</svg>
