<svg width="256" height="256" viewBox="0 0 256 256" fill="none" xmlns="http://www.w3.org/2000/svg">
<path d="M42.6667 213.333C36.7756 207.442 36.7756 197.891 42.6667 192L192 42.6667C197.891 36.7756 207.442 36.7756 213.333 42.6667V42.6667C219.224 48.5577 219.224 58.109 213.333 64L64 213.333C58.109 219.224 48.5577 219.224 42.6667 213.333V213.333Z" fill="white"/>
<path d="M42.6667 42.6667C48.5577 36.7756 58.109 36.7756 64 42.6667L213.333 192C219.224 197.891 219.224 207.442 213.333 213.333V213.333C207.442 219.224 197.891 219.224 192 213.333L42.6667 64C36.7757 58.109 36.7757 48.5577 42.6667 42.6667V42.6667Z" fill="white"/>
</svg>
