<svg width="272" height="272" viewBox="0 0 272 272" fill="none" xmlns="http://www.w3.org/2000/svg">
<path d="M136 256.68C127.669 256.68 120.915 249.926 120.915 241.595L120.915 30.4054C120.915 22.0742 127.669 15.3205 136 15.3205V15.3205C144.331 15.3205 151.085 22.0742 151.085 30.4054V241.595C151.085 249.926 144.331 256.68 136 256.68V256.68Z" fill="white"/>
<path d="M15.3205 136C15.3205 127.669 22.0742 120.915 30.4054 120.915L241.595 120.915C249.926 120.915 256.68 127.669 256.68 136V136C256.68 144.331 249.926 151.085 241.595 151.085L30.4054 151.085C22.0742 151.085 15.3205 144.331 15.3205 136V136Z" fill="white"/>
<path d="M50.6667 221.333C44.7756 215.442 44.7756 205.891 50.6667 200L200 50.6667C205.891 44.7756 215.442 44.7756 221.333 50.6667V50.6667C227.224 56.5577 227.224 66.109 221.333 72L72 221.333C66.109 227.224 56.5577 227.224 50.6667 221.333V221.333Z" fill="white"/>
<path d="M50.6667 50.6667C56.5577 44.7756 66.109 44.7756 72 50.6667L221.333 200C227.224 205.891 227.224 215.442 221.333 221.333V221.333C215.442 227.224 205.891 227.224 200 221.333L50.6667 72C44.7757 66.109 44.7757 56.5577 50.6667 50.6667V50.6667Z" fill="white"/>
</svg>
